<svg xmlns="http://www.w3.org/2000/svg" viewBox="0 0 624 149">
  <path 
    d="M57.472 41.256C57.472 38.696 56.576 37.416 54.784 37.416C54.1013 37.416 53.2907 37.5867 52.352 37.928C51.4133 38.2693 50.5173 38.568 49.664 38.824C46.5067 40.5307 44.032 42.408 42.24 44.456C40.5333 46.4187 38.784 48.6373 36.992 51.112C35.2 53.5867 33.664 56.232 32.384 59.048C31.104 61.864 30.1227 64.5093 29.44 66.984C26.9653 76.1147 27.904 82.2587 32.256 85.416C34.048 86.696 35.9253 87.336 37.888 87.336C39.936 87.2507 41.5573 86.824 42.752 86.056C44.032 85.288 45.2693 84.5627 46.464 83.88C47.6587 83.1973 49.024 82.728 50.56 82.472C52.1813 82.1307 54.144 82.344 56.448 83.112C58.8373 83.7947 60.1173 84.7333 60.288 85.928C60.4587 87.1227 60.4587 88.36 60.288 89.64C60.1173 90.92 60.0747 92.072 60.16 93.096C60.3307 94.12 61.2693 94.76 62.976 95.016C64.5973 97.064 63.5733 99.5387 59.904 102.44C58.9653 103.208 58.0693 103.933 57.216 104.616C49.8773 109.309 42.0693 111.912 33.792 112.424C28.5867 112.765 23.04 111.827 17.152 109.608C8.36267 106.28 3.41333 98.8133 2.304 87.208C0.853333 76.456 2.21867 65.32 6.4 53.8C9.89867 44.072 15.1893 35.0693 22.272 26.792C28.672 19.1973 34.9867 14.248 41.216 11.944C48.64 8.104 56.6613 6.61066 65.28 7.464C74.4107 8.65866 80.384 12.5413 83.2 19.112C86.016 25.6827 85.5467 33.576 81.792 42.792C80.512 46.0347 78.08 48.5947 74.496 50.472C71.424 52.1787 68.096 53.032 64.512 53.032C60.928 53.032 58.624 51.9227 57.6 49.704C56.576 47.4 56.5333 44.584 57.472 41.256ZM98.463 100.008C97.951 101.8 97.3537 103.379 96.671 104.744C95.9883 106.109 94.9643 107.389 93.599 108.584C92.2337 109.779 90.6123 110.888 88.735 111.912C86.8577 113.021 85.0657 113.789 83.359 114.216C79.4337 115.069 77.3857 113.917 77.215 110.76C76.959 109.907 76.4043 109.395 75.551 109.224C74.783 109.139 74.0577 108.925 73.375 108.584C71.583 107.816 71.071 105.725 71.839 102.312C73.2043 97.6187 74.6977 91.944 76.319 85.288C77.9403 78.5467 80.031 71.1653 82.591 63.144C88.6497 43.688 96.159 26.152 105.119 10.536C105.716 9.768 106.399 8.78666 107.167 7.592C107.935 6.312 108.916 5.16 110.111 4.13599C113.098 1.40533 116.767 0.765327 121.119 2.216C121.034 3.32533 121.29 4.34933 121.887 5.28799C122.484 6.14133 123.167 7.03733 123.935 7.976C125.898 10.1947 126.794 12.2 126.623 13.992C117.578 35.4107 109.428 59.3467 102.175 85.8C101.322 88.872 100.639 91.56 100.127 93.864C99.615 96.168 99.0603 98.216 98.463 100.008ZM155.672 86.056C154.051 86.824 152.472 87.4213 150.936 87.848C149.4 88.2747 147.608 88.7013 145.56 89.128C140.184 90.2373 136.301 90.8773 133.912 91.048C134.168 91.9013 135.448 92.9253 137.752 94.12C139.288 94.376 140.952 94.1627 142.744 93.48C144.621 92.712 146.541 92.0293 148.504 91.432C150.552 90.7493 152.515 90.3653 154.392 90.28C156.355 90.1947 158.189 90.92 159.896 92.456C160.579 93.992 161.133 94.888 161.56 95.144C161.987 95.4 162.371 95.528 162.712 95.528C163.053 95.528 163.437 95.656 163.864 95.912C164.291 96.168 164.888 97.1493 165.656 98.856C166.509 100.563 166.296 102.184 165.016 103.72C163.821 105.256 161.944 106.579 159.384 107.688C156.824 108.797 153.837 109.693 150.424 110.376C147.011 111.059 143.597 111.528 140.184 111.784C132.504 112.381 126.659 111.784 122.648 109.992C116.845 108.029 113.091 104.147 111.384 98.344C109.165 90.664 110.403 81.704 115.096 71.464C117.229 66.6853 120.6 61.5653 125.208 56.104C129.219 51.3253 133.699 47.8693 138.648 45.736C144.365 43.2613 150.339 42.1093 156.568 42.28C163.224 42.4507 167.832 45.352 170.392 50.984C171.672 53.9707 171.928 58.152 171.16 63.528C169.795 70.5253 168.003 75.4747 165.784 78.376C163.565 81.192 160.195 83.752 155.672 86.056ZM148.248 65.832C143.725 64.8933 140.184 67.4533 137.624 73.512C136.856 75.1333 136.259 76.84 135.832 78.632C138.733 78.9733 141.805 77.352 145.048 73.768C146.243 72.3173 147.139 70.8667 147.736 69.416C148.333 67.88 148.504 66.6853 148.248 65.832ZM231.374 50.088L231.886 50.216C232.057 50.216 232.142 50.2587 232.142 50.344C234.361 49.4907 236.195 50.1307 237.646 52.264C238.585 53.7147 239.31 55.9333 239.822 58.92C239.993 63.016 239.566 68.6907 238.542 75.944C236.579 90.6213 235.513 99.368 235.342 102.184C235.513 105.171 233.678 107.219 229.838 108.328C226.51 109.352 223.182 109.309 219.854 108.2C216.355 107.005 214.905 105.171 215.502 102.696C214.819 103.976 214.137 104.872 213.454 105.384C212.771 105.981 211.406 106.749 209.358 107.688C207.395 108.712 204.579 109.523 200.91 110.12C197.241 110.803 193.571 110.973 189.902 110.632C186.233 110.376 182.862 109.48 179.79 107.944C176.803 106.493 174.798 104.189 173.774 101.032C171.811 94.888 172.067 87.08 174.542 77.608C176.249 71.3787 179.321 65.8747 183.758 61.096C188.878 55.6347 194.681 51.112 201.166 47.528C206.03 44.8827 210.723 43.304 215.246 42.792C216.782 42.6213 218.105 42.664 219.214 42.92C220.409 43.176 221.646 43.432 222.926 43.688C224.291 43.944 225.571 44.328 226.766 44.84C229.838 46.12 231.374 47.8693 231.374 50.088ZM207.694 84.008C208.291 82.8133 208.761 81.32 209.102 79.528C209.529 77.736 210.083 75.7733 210.766 73.64C203.854 76.456 198.563 79.912 194.894 84.008C190.883 88.5307 191.139 91.6453 195.662 93.352C199.587 94.376 202.446 93.736 204.238 91.432C205.006 90.408 205.689 89.128 206.286 87.592C206.883 86.056 207.609 84.4773 208.462 82.856C208.206 83.2827 207.95 83.6667 207.694 84.008ZM254.687 52.008C255.882 48.936 257.546 46.632 259.679 45.096C261.898 43.4747 263.988 42.4933 265.951 42.152C267.999 41.7253 269.663 41.9387 270.943 42.792C272.308 43.6453 272.778 44.968 272.351 46.76C273.972 45.1387 276.319 43.6453 279.391 42.28C282.463 40.9147 284.895 39.976 286.687 39.464C288.479 38.952 290.015 38.696 291.295 38.696C294.111 38.8667 294.922 40.4027 293.727 43.304C295.178 43.56 296.244 44.4987 296.927 46.12C297.61 47.7413 297.695 49.5333 297.183 51.496C296.671 53.4587 295.519 55.3787 293.727 57.256C291.935 59.1333 289.503 60.4133 286.431 61.096C283.444 61.7787 280.927 63.3573 278.879 65.832C276.916 68.2213 275.167 71.208 273.631 74.792C271.071 80.8507 268.767 89.4267 266.719 100.52C266.036 104.531 263.263 107.901 258.399 110.632C253.791 113.277 249.567 114.045 245.727 112.936C241.375 111.741 239.455 108.541 239.967 103.336C240.138 99.6667 241.247 94.8027 243.295 88.744C245.343 82.6 246.922 77.992 248.031 74.92C249.14 71.7627 249.908 69.3733 250.335 67.752L254.687 52.008ZM357.914 77.608C354.501 80.168 350.917 82.0453 347.162 83.24C343.493 84.3493 339.823 84.648 336.154 84.136C332.485 83.624 329.327 82.0453 326.682 79.4C324.293 86.9947 322.671 94.504 321.818 101.928C321.477 103.293 320.879 104.531 320.026 105.64C318.49 110.163 315.119 113.192 309.914 114.728C304.794 116.179 300.015 115.923 295.578 113.96C293.53 113.021 291.823 111.656 290.458 109.864C289.093 108.072 288.41 105.896 288.41 103.336C294.298 82.9413 299.973 66.216 305.434 53.16C306.629 50.4293 307.567 48.2107 308.25 46.504C309.018 44.7973 309.701 43.3467 310.298 42.152C310.895 40.9573 311.407 39.9333 311.834 39.08C312.346 38.1413 312.943 37.1173 313.626 36.008C315.162 33.448 316.911 30.4613 318.874 27.048C320.922 23.5493 322.629 20.9467 323.994 19.24C325.445 17.5333 326.938 16.0827 328.474 14.888C330.095 13.608 331.845 12.4133 333.722 11.304C335.685 10.1947 338.117 8.74399 341.018 6.952C343.919 5.15999 346.991 4.09333 350.234 3.752C353.562 3.32533 356.719 3.58133 359.706 4.52C366.021 6.48266 370.671 10.8773 373.658 17.704C376.218 24.0187 376.645 32.5093 374.938 43.176C372.293 59.4747 366.618 70.952 357.914 77.608ZM331.162 66.216C338.159 64.68 343.023 60.1147 345.754 52.52C348.058 46.12 348.527 38.8667 347.162 30.76C345.199 34.088 343.407 37.544 341.786 41.128C340.25 44.712 338.842 47.912 337.562 50.728C334.746 57.0427 332.613 62.2053 331.162 66.216ZM383.187 52.008C384.382 48.936 386.046 46.632 388.179 45.096C390.398 43.4747 392.488 42.4933 394.451 42.152C396.499 41.7253 398.163 41.9387 399.443 42.792C400.808 43.6453 401.278 44.968 400.851 46.76C402.472 45.1387 404.819 43.6453 407.891 42.28C410.963 40.9147 413.395 39.976 415.187 39.464C416.979 38.952 418.515 38.696 419.795 38.696C422.611 38.8667 423.422 40.4027 422.227 43.304C423.678 43.56 424.744 44.4987 425.427 46.12C426.11 47.7413 426.195 49.5333 425.683 51.496C425.171 53.4587 424.019 55.3787 422.227 57.256C420.435 59.1333 418.003 60.4133 414.931 61.096C411.944 61.7787 409.427 63.3573 407.379 65.832C405.416 68.2213 403.667 71.208 402.131 74.792C399.571 80.8507 397.267 89.4267 395.219 100.52C394.536 104.531 391.763 107.901 386.899 110.632C382.291 113.277 378.067 114.045 374.227 112.936C369.875 111.741 367.955 108.541 368.467 103.336C368.638 99.6667 369.747 94.8027 371.795 88.744C373.843 82.6 375.422 77.992 376.531 74.92C377.64 71.7627 378.408 69.3733 378.835 67.752L383.187 52.008ZM438.67 50.344C440.462 49.064 442.681 48.7653 445.326 49.448C445.838 49.5333 446.35 49.576 446.862 49.576C448.739 45.736 451.982 43.7307 456.59 43.56C457.785 43.4747 459.449 43.2613 461.582 42.92C463.715 42.5787 466.275 42.664 469.262 43.176C472.334 43.688 475.022 44.584 477.326 45.864C482.361 48.5947 485.39 52.52 486.414 57.64C488.462 65.1493 488.163 73.3413 485.518 82.216C482.702 92.0293 477.923 99.88 471.182 105.768C468.11 108.499 464.867 110.205 461.454 110.888C458.041 111.656 454.969 112.083 452.238 112.168C449.507 112.253 446.99 112.253 444.686 112.168C442.467 112.168 440.291 111.955 438.158 111.528C433.55 110.589 429.753 108.413 426.766 105C423.267 101.16 421.774 95.1867 422.286 87.08C422.627 79.912 424.419 72.7013 427.662 65.448C430.99 58.1093 434.659 53.0747 438.67 50.344ZM461.198 76.072C459.065 76.7547 457.059 77.0533 455.182 76.968C454.243 77.9067 453.39 78.9307 452.622 80.04C451.939 81.064 451.001 82.0453 449.806 82.984C448.611 83.8373 448.014 84.1787 448.014 84.008C446.563 86.056 445.369 88.1893 444.43 90.408C443.491 92.5413 443.491 94.7173 444.43 96.936C447.843 97.2773 450.361 97.192 451.982 96.68C453.603 96.168 455.097 95.1867 456.462 93.736C457.913 92.2853 459.022 90.5787 459.79 88.616C461.326 84.9467 461.795 80.7653 461.198 76.072ZM533.827 47.912C536.046 46.2053 537.582 44.9253 538.435 44.072C539.288 43.2187 540.184 42.408 541.123 41.64C542.062 40.872 542.958 40.4027 543.811 40.232C544.664 40.0613 545.603 40.1467 546.627 40.488C547.736 40.744 548.718 41 549.571 41.256C550.51 41.512 551.064 41.6827 551.235 41.768C552.174 42.7067 552.942 43.944 553.539 45.48C554.136 47.016 554.435 48.2107 554.435 49.064C554.435 49.9173 554.179 50.6853 553.667 51.368C551.96 55.8053 547.438 62.0773 540.099 70.184C538.307 72.232 536.728 73.896 535.363 75.176C536.131 77.736 536.686 81.1067 537.027 85.288C537.88 93.9067 538.435 98.856 538.691 100.136C538.947 101.416 539.118 102.355 539.203 102.952C539.288 103.549 539.544 104.147 539.971 104.744C540.312 106.195 539.843 107.347 538.563 108.2C537.368 109.053 535.832 109.693 533.955 110.12C530.03 111.059 526.702 111.187 523.971 110.504C522.606 109.48 521.624 108.2 521.027 106.664C520.174 104.872 518.851 101.16 517.059 95.528C516.12 96.552 515.224 97.576 514.371 98.6C513.518 99.624 512.664 100.648 511.811 101.672L510.019 104.104C509.507 104.787 508.995 105.469 508.483 106.152C508.056 106.835 507.544 107.56 506.947 108.328C505.752 109.693 503.96 111.101 501.571 112.552C499.267 113.491 497.134 113.917 495.171 113.832C491.502 113.576 489.496 112.595 489.155 110.888C487.192 110.205 486.04 109.139 485.699 107.688C485.358 106.323 485.571 104.104 486.339 101.032C494.019 87.0373 500.803 77.48 506.691 72.36C505.923 71.1653 505.326 69.3307 504.899 66.856C503.96 62.248 503.107 59.2613 502.339 57.896C500.206 57.2987 498.67 56.1893 497.731 54.568C496.792 52.9467 497.048 50.6853 498.499 47.784L500.035 45.992C503.363 43.0053 506.776 41.2133 510.275 40.616C513.859 40.0187 517.144 40.872 520.131 43.176C522.35 44.0293 524.782 46.4187 527.427 50.344C528.11 51.368 528.536 52.2213 528.707 52.904C529.987 51.1973 531.694 49.5333 533.827 47.912ZM552.233 65.832C552.318 62.3333 552.062 59.4747 551.465 57.256C550.868 55.0373 550.868 53.2027 551.465 51.752C552.148 50.216 553.172 49.1493 554.537 48.552C555.988 47.9547 557.652 47.784 559.529 48.04C561.492 48.2107 563.412 48.7653 565.289 49.704C569.812 51.752 572.969 54.6533 574.761 58.408C575.188 60.2853 575.017 62.632 574.249 65.448C573.566 68.1787 572.756 71.0373 571.817 74.024C570.878 76.9253 569.982 79.784 569.129 82.6C568.276 85.3307 567.934 87.6347 568.105 89.512C570.324 88.1467 572.244 86.0987 573.865 83.368C575.572 80.6373 577.108 77.736 578.473 74.664C579.924 71.5067 581.246 68.392 582.441 65.32C583.721 62.248 584.916 59.816 586.025 58.024C587.22 56.232 588.158 54.824 588.841 53.8C589.524 52.6907 590.206 51.7093 590.889 50.856C591.998 49.4053 593.449 47.9973 595.241 46.632C595.753 46.2053 597.289 46.2907 599.849 46.888C602.494 47.4 604.414 47.784 605.609 48.04C606.889 48.2107 607.742 48.1253 608.169 47.784L609.961 46.504C612.35 45.3093 615.166 45.352 618.409 46.632C621.566 47.9973 623.23 50.088 623.401 52.904C623.316 52.9893 623.273 53.16 623.273 53.416L623.657 53.544L622.761 54.312C622.164 55.4213 621.694 56.1893 621.353 56.616C621.097 56.9573 620.5 57.512 619.561 58.28C613.758 64.5093 607.102 76.072 599.593 92.968C597.716 97.1493 596.009 100.904 594.473 104.232C596.777 105.683 598.526 107.56 599.721 109.864C600.916 112.168 600.916 114.685 599.721 117.416C592.638 123.048 588.67 128.339 587.817 133.288C587.39 136.36 586.836 138.536 586.153 139.816C585.556 141.096 584.574 142.333 583.209 143.528C578.601 146.941 573.182 146.088 566.953 140.968C562.516 136.531 562.302 130.984 566.313 124.328C567.337 122.536 568.318 120.659 569.257 118.696C570.622 115.795 572.798 111.485 575.785 105.768C568.446 110.035 561.705 109.949 555.561 105.512C551.209 102.184 549.673 94.632 550.953 82.856C551.806 75.0053 552.233 69.3307 552.233 65.832Z" 
    fill="black"
  />
</svg> 